<svg xmlns="http://www.w3.org/2000/svg" version="1.1" xmlns:xlink="http://www.w3.org/1999/xlink" viewBox="0 0 200 200"><rect width="200" height="200" fill="url('#gradient')"></rect><defs><linearGradient id="gradient" gradientTransform="rotate(45 0.5 0.5)"><stop offset="0%" stop-color="#00CC7A"></stop><stop offset="100%" stop-color="#0052CC"></stop></linearGradient></defs><g><g fill="#fafafa" transform="matrix(6.028321400159109,0,0,6.028321400159109,19.522301011836618,142.86562124129412)" stroke="#04221a" stroke-width="0.2"><path d="M6.69-4.82L4.50-4.82L4.50 0L1.07 0L1.07-14.22L6.75-14.22Q8.38-14.22 9.63-13.62Q10.89-13.02 11.58-11.91Q12.27-10.80 12.27-9.39L12.27-9.39Q12.27-7.31 10.78-6.07Q9.29-4.82 6.69-4.82L6.69-4.82ZM4.50-11.57L4.50-7.47L6.75-7.47Q7.74-7.47 8.27-7.97Q8.79-8.47 8.79-9.38L8.79-9.38Q8.79-10.37 8.25-10.97Q7.71-11.56 6.79-11.57L6.79-11.57L4.50-11.57ZM22.19-4.81L25.60-4.81Q25.53-3.33 24.79-2.19Q24.06-1.05 22.74-0.43Q21.42 0.20 19.72 0.20L19.72 0.20Q16.91 0.20 15.30-1.63Q13.69-3.46 13.69-6.79L13.69-6.79L13.69-7.49Q13.69-9.58 14.42-11.15Q15.15-12.71 16.51-13.57Q17.88-14.42 19.68-14.42L19.68-14.42Q22.27-14.42 23.84-13.06Q25.41-11.70 25.63-9.31L25.63-9.31L22.21-9.31Q22.17-10.61 21.55-11.17Q20.94-11.74 19.68-11.74L19.68-11.74Q18.40-11.74 17.80-10.78Q17.21-9.82 17.18-7.72L17.18-7.72L17.18-6.72Q17.18-4.44 17.75-3.47Q18.32-2.49 19.72-2.49L19.72-2.49Q20.90-2.49 21.52-3.05Q22.15-3.60 22.19-4.81L22.19-4.81Z"></path></g></g></svg>